<svg xmlns="http://www.w3.org/2000/svg" fill="none" viewBox="0 0 24 24" class="Footer-module--icon--6f44a" role="presentation" aria-hidden="true"><path fill="currentColor" d="M12 11.2828c-.9511-1.84973-3.54025-5.29636-5.94825-6.99561-2.3065-1.62838-3.18588-1.34663-3.7625-1.085C1.62162 3.50231 1.5 4.52781 1.5 5.12981c0 .60375.33075 4.94379.546 5.66909.71313 2.394 3.24887 3.2025 5.58512 2.9435.119-.0175.24063-.0341.36313-.049-.12075.0193-.2415.035-.36313.049-3.42299.5075-6.46362 1.7544-2.47624 6.1933C9.54125 24.4769 11.1661 18.9618 12 16.1662c.8339 2.7956 1.7937 8.1121 6.7664 3.7695 3.7336-3.7695 1.0255-5.6858-2.3975-6.1933-.1214-.0134-.2425-.0297-.3632-.049.1225.0149.2442.0315.3632.049 2.3362.2599 4.872-.5495 5.5851-2.9435.2152-.7245.546-5.06621.546-5.66821 0-.60375-.1216-1.62838-.7893-1.93025-.5766-.26075-1.4559-.5425-3.7624 1.085-2.408 1.70188-4.9972 5.1485-5.9483 6.99736Z"></path></svg>