<svg xmlns="http://www.w3.org/2000/svg" fill="none" viewBox="0 0 24 24" class="Footer-module--icon--6f44a" role="presentation" aria-hidden="true"><path fill="currentColor" fill-rule="evenodd" d="M20.5281 6.08945c.2671.70877.4089 1.45862.419 2.216.0557.95258.056 1.26412.0579 3.67535l.0001.0336c0 2.443-.013 2.748-.056 3.71-.015.749-.156 1.487-.419 2.187-.2319.5977-.5859 1.1406-1.0392 1.5939-.4533.4533-.9961.8072-1.5938 1.0391-.6997.2626-1.4389.4043-2.186.419-.955.056-1.268.056-3.71.056-2.44203 0-2.74703-.013-3.71003-.056-.74863-.0246-1.48757-.1768-2.185-.45-.59794-.2314-1.14102-.585-1.59456-1.0382-.45354-.4532-.80756-.996-1.03944-1.5938-.263-.701-.404-1.439-.419-2.187-.056-.956-.056-1.268-.056-3.71 0-2.44195.013-2.74695.056-3.70995.01412-.74689.15583-1.48587.419-2.185.23149-.59795.58525-1.14098 1.03863-1.59437.45339-.45339.99643-.80715 1.59437-1.03863.69935-.26254 1.43816-.40455 2.185-.42.955-.055 1.268-.055 3.71003-.055 2.442 0 2.747.012 3.709.055.7471.01534 1.4863.15735 2.186.42.5978.23165 1.1408.58546 1.5941 1.03883.4534.45336.8072.99632 1.0389 1.59417ZM7.37107 11.9794c0 2.554 2.069 4.623 4.62303 4.623 1.2261 0 2.4019-.487 3.2689-1.354.867-.867 1.3541-2.0429 1.3541-3.269 0-1.2261-.4871-2.40193-1.3541-3.26891-.867-.86698-2.0428-1.35404-3.2689-1.35404-2.55403 0-4.62303 2.069-4.62303 4.62295Zm8.35203-4.79395c0 .596.481 1.07799 1.078 1.07799.595 0 1.077-.48199 1.077-1.07799 0-.1415-.0279-.28162-.082-.41235-.0542-.13072-.1336-.24951-.2336-.34956-.1001-.10006-.2189-.17943-.3496-.23357-.1307-.05415-.2708-.08202-.4123-.08202-.1415 0-.2816.02787-.4124.08202-.1307.05414-.2495.13351-.3495.23357-.1001.10005-.1795.21884-.2336.34956-.0542.13073-.082.27085-.082.41235Zm-.726 4.79395c0 1.6586-1.3445 3.003-3.003 3.003s-3.00303-1.3444-3.00303-3.003c0-1.6585 1.34453-3.00296 3.00303-3.00296 1.6585 0 3.003 1.34446 3.003 3.00296Z" clip-rule="evenodd"></path></svg>