<svg xmlns="http://www.w3.org/2000/svg" fill="none" viewBox="0 0 24 24" class="Footer-module--icon--6f44a" role="presentation" aria-hidden="true"><path fill="currentColor" d="M18.3353 18.339h-2.6656v-4.1767c0-.996-.0202-2.2778-1.3889-2.2778-1.3898 0-1.6021 1.0837-1.6021 2.2042v4.2503h-2.6655V9.75h2.5606v1.1707h.0344c.3578-.675 1.2278-1.38745 2.5275-1.38745 2.7008 0 3.2003 1.77755 3.2003 4.09125l-.0007 4.7145ZM7.00275 8.57475c-.858 0-1.54725-.6945-1.54725-1.54875 0-.8535.69-1.54725 1.54725-1.54725.855 0 1.548.69375 1.548 1.54725 0 .85425-.69375 1.54875-1.548 1.54875Zm1.3365 9.76425h-2.673V9.75h2.673v8.589ZM19.6688 3H4.32825C3.594 3 3 3.5805 3 4.29675V19.7032C3 20.4202 3.594 21 4.32825 21H19.6665C20.4 21 21 20.4202 21 19.7032V4.29675C21 3.5805 20.4 3 19.6665 3h.0023Z"></path></svg>