<svg xmlns="http://www.w3.org/2000/svg" fill="none" viewBox="0 0 24 24" class="Footer-module--icon--6f44a" role="presentation" aria-hidden="true"><path fill="currentColor" d="M21.5933 7.20301c-.1139-.4226-.3365-.808-.6456-1.11783-.3091-.30984-.694-.53331-1.1164-.64817-1.566-.43-7.831-.437-7.831-.437s-6.26397-.007-7.83097.404c-.42208.12014-.80618.34677-1.11543.65813-.30926.31136-.53328.69699-.65057 1.11987-.413 1.566-.417 4.81399-.417 4.81399s-.004 3.264.406 4.814c.23.857.905 1.534 1.763 1.765 1.582.43 7.82997.437 7.82997.437s6.265.007 7.831-.403c.4225-.1147.8078-.3376 1.1177-.6468.3099-.3092.5337-.694.6493-1.1162.414-1.565.417-4.812.417-4.812s.02-3.26499-.407-4.83099ZM9.99633 15.005l.00497-5.99999 5.207 3.00499-5.21197 2.995Z"></path></svg>