<svg viewBox="0 0 96 111" fill="none" xmlns="http://www.w3.org/2000/svg"><g clip-path="url(#clip0_2520_3089)"><path d="M79.3594 12.5837L56.0721 32.2521H79.3594V12.5837ZM51.0194 29.0134L85.1078 0.222661V32.2521H95.9966V80.6371H82.9158V111L51.0194 81.7639V110.086H45.271V81.7774L12.6451 110.875V80.6371H0V32.2521H13.0808V0L45.271 28.6626V0.607258H51.0194V29.0168V29.0134ZM41.154 37.9941C29.3465 38.0009 17.5491 37.9941 5.74838 37.9941V74.8951H12.6451V65.7458L41.1573 37.9975L41.154 37.9941ZM55.1534 37.9941L82.9192 65.766V74.8918H90.2516V37.9907C78.559 37.9907 66.8562 37.9975 55.1534 37.9907V37.9941ZM40.671 32.2521L18.8292 12.803V32.2521H40.671ZM45.271 74.1091V41.9919L18.3968 68.1445V98.0789L45.271 74.1091ZM51.0971 42.0526V74.0551L77.1675 97.9507C77.1675 88.0052 77.1641 78.0664 77.1641 68.1208L51.0971 42.0526Z" fill="#00B2FF"></path></g><defs><clipPath id="clip0_2520_3089"><rect width="96" height="111" fill="white"></rect></clipPath></defs></svg>