<svg xmlns="http://www.w3.org/2000/svg" viewBox="0 0 24 24" role="presentation" aria-hidden="true"><path d="M22.84,6.81a1.45,1.45,0,0,0-.55-.55,1.78,1.78,0,0,0-.76-.2,1.47,1.47,0,0,0-.74.2L17,8.45V7.69a3,3,0,0,0-3-3H4a3,3,0,0,0-3,3v8a3,3,0,0,0,3,3H14a3,3,0,0,0,3-3V14.56L20.71,17a1.49,1.49,0,0,0,.77.24h.06a1.45,1.45,0,0,0,1.29-.72,1.51,1.51,0,0,0,.21-.77V7.56A1.53,1.53,0,0,0,22.84,6.81ZM15,15.69a1,1,0,0,1-1,1H4a1,1,0,0,1-1-1v-8a1,1,0,0,1,1-1H14a1,1,0,0,1,1,1Zm6-.87-4-2.67V10.76l4-2.33Z"></path></svg>