<svg xmlns="http://www.w3.org/2000/svg" viewBox="0 0 24 24" role="presentation" aria-hidden="true"><path d="M12.89,15.55l-1.49-3s0,0,0,0l-3-6a1,1,0,0,0-1.78,0l-3,6s0,0,0,0l-1.49,3a1,1,0,1,0,1.78.9L5.12,14H9.88l1.23,2.45A1,1,0,0,0,12,17a.93.93,0,0,0,.45-.11A1,1,0,0,0,12.89,15.55ZM6.12,12,7.5,9.24,8.88,12Z"></path><path d="M21,10A3.56,3.56,0,0,0,16,10a3.44,3.44,0,0,0-1,2.47V16a1,1,0,0,0,2,0V15h3v1a1,1,0,0,0,2,0V12.5A3.44,3.44,0,0,0,21,10Zm-1,3H17v-.5a1.5,1.5,0,0,1,.44-1.06,1.53,1.53,0,0,1,2.12,0A1.5,1.5,0,0,1,20,12.5Z"></path></svg>