<svg xmlns="http://www.w3.org/2000/svg" fill="none" viewBox="0 0 24 24" role="presentation" aria-hidden="true"><path fill="currentColor" fill-rule="evenodd" d="M12.0109 3.90709 8.80548 9.00078h6.37832l-3.1729-5.09369Zm-.0602-2.26537c.2927-.01051.5831.05478.8431.18954.2601.13476.4809.33441.6411.5796l.0116.0182 3.6914 5.92604c.1665.24875.2645.53724.2838.83634.0199.30948-.0451.61851-.1882.89366-.1431.2751-.3587.5059-.6235.6673-.2648.1614-.5687.2473-.8788.2484H8.321c-.30188.0106-.60134-.0595-.86745-.2033-.27586-.149-.50513-.3714-.66247-.6426-.15734-.27117-.23662-.5806-.22906-.89404.00749-.31096.10016-.61386.26784-.87574L10.5419 2.4863c.1414-.2433.3411-.44784.5814-.59508.2497-.15305.5347-.239.8274-.2495ZM2 15c0-1.1046.89543-2 2-2h5c1.1046 0 2 .8954 2 2v5c0 1.1046-.8954 2-2 2H4c-1.10457 0-2-.8954-2-2v-5Zm7 0H4v5h5v-5Zm8.5 0c-1.3807 0-2.5 1.1193-2.5 2.5s1.1193 2.5 2.5 2.5 2.5-1.1193 2.5-2.5-1.1193-2.5-2.5-2.5ZM13 17.5c0-2.4853 2.0147-4.5 4.5-4.5s4.5 2.0147 4.5 4.5-2.0147 4.5-4.5 4.5-4.5-2.0147-4.5-4.5Z" clip-rule="evenodd"></path></svg>