<svg xmlns="http://www.w3.org/2000/svg" fill="none" viewBox="0 0 24 24" class="Productivity-module--icon--ad0db" role="presentation" aria-hidden="true"><path fill="currentColor" fill-rule="evenodd" d="M23 12c0 6.075-4.925 11-11 11S1 18.075 1 12 5.925 1 12 1s11 4.925 11 11Zm-7.5558 8.3149C14.3522 20.7672 13.1819 21 12 21c-2.38695 0-4.67613-.9482-6.36396-2.636C3.94821 16.6761 3 14.3869 3 12c0-2.38695.94821-4.67613 2.63604-6.36396S9.61305 3 12 3c1.1819 0 2.3522.23279 3.4442.68508 1.0919.4523 2.084 1.11523 2.9198 1.95096.8357.83573 1.4986 1.82788 1.9509 2.91981C20.7672 9.64778 21 10.8181 21 12c0 1.1819-.2328 2.3522-.6851 3.4442-.4523 1.0919-1.1152 2.084-1.9509 2.9198-.8358.8357-1.8279 1.4986-2.9198 1.9509ZM12 5c1.8565 0 3.637.7375 4.9497 2.05025C18.2625 8.36301 19 10.1435 19 12v1h-2v-1c0-1.3261-.5268-2.59785-1.4645-3.53553C14.5979 7.52678 13.3261 7 12 7c-1.3261 0-2.59785.52678-3.53553 1.46447C7.52678 9.40215 7 10.6739 7 12v1H5v-1c0-1.8565.7375-3.63699 2.05025-4.94975C8.36301 5.7375 10.1435 5 12 5Zm-1 4v4.17c-.6675.2359-1.23009.7002-1.58836 1.3108-.35827.6106-.48913 1.3282-.36945 2.026.11967.6978.48218 1.3307 1.02341 1.7871.5413.4563 1.2264.7066 1.9344.7066s1.3931-.2503 1.9344-.7066c.5412-.4564.9037-1.0893 1.0234-1.7871.1197-.6978-.0112-1.4154-.3694-2.026-.3583-.6106-.9209-1.0749-1.5884-1.3108V9h-2Zm0 7c0-.2652.1054-.5196.2929-.7071S11.7348 15 12 15c.2652 0 .5196.1054.7071.2929S13 15.7348 13 16c0 .2652-.1054.5196-.2929.7071S12.2652 17 12 17c-.2652 0-.5196-.1054-.7071-.2929S11 16.2652 11 16Z" clip-rule="evenodd"></path></svg>