<svg xmlns="http://www.w3.org/2000/svg" fill="none" viewBox="0 0 24 24" class="Productivity-module--icon--ad0db" role="presentation" aria-hidden="true"><path fill="currentColor" d="M4 4c-.26522 0-.51957.10536-.70711.29289C3.10536 4.48043 3 4.73478 3 5v14c0 .2652.10536.5196.29289.7071C3.48043 19.8946 3.73478 20 4 20h16c.2652 0 .5196-.1054.7071-.2929S21 19.2652 21 19V5c0-.26522-.1054-.51957-.2929-.70711C20.5196 4.10536 20.2652 4 20 4H4Zm1 14V6h14v12H5Zm8.5-10.5h-7v2h7v-2Zm4 7v2h-7v-2h7Zm-2-3.5h-7v2h7v-2Z"></path></svg>