<svg xmlns="http://www.w3.org/2000/svg" fill="none" viewBox="0 0 24 24" class="Productivity-module--icon--ad0db" role="presentation" aria-hidden="true"><path fill="currentColor" d="M9 22c-.96667 0-1.875-.1833-2.725-.55-.85-.3667-1.59167-.8667-2.225-1.5-.63333-.6333-1.13333-1.375-1.5-2.225C2.18333 16.875 2 15.9667 2 15c0-1.35.35-2.5833 1.05-3.7.7-1.1167 1.61667-1.96667 2.75-2.55.33333-.65.746-1.221 1.238-1.713S8.10067 6.13267 8.75 5.8c.55-1.13333 1.3917-2.05 2.525-2.75C12.4083 2.35 13.65 2 15 2c.9667 0 1.875.18333 2.725.55.85.36667 1.5917.86667 2.225 1.5.6333.63333 1.1333 1.375 1.5 2.225.3667.85.55 1.75833.55 2.725 0 1.4167-.35 2.6667-1.05 3.75-.7 1.0833-1.6167 1.9167-2.75 2.5-.3333.65-.7457 1.221-1.237 1.713-.4913.492-1.0623.9043-1.713 1.237-.5833 1.1333-1.4333 2.05-2.55 2.75-1.1167.7-2.35 1.05-3.7 1.05Zm0-2c.55 0 1.0793-.0833 1.588-.25.5087-.1667.9793-.4167 1.412-.75-.9667 0-1.875-.1833-2.725-.55-.85-.3667-1.59167-.8667-2.225-1.5-.63333-.6333-1.13333-1.375-1.5-2.225C5.18333 13.875 5 12.9667 5 12c-.33333.4333-.58333.9043-.75 1.413C4.08333 13.9217 4 14.4507 4 15c0 .7.13333 1.35.4 1.95.26667.6.625 1.125 1.075 1.575.45.45.975.8083 1.575 1.075.6.2667 1.25.4 1.95.4Zm3-3c.55 0 1.0877-.0833 1.613-.25.5253-.1667 1.0043-.4167 1.437-.75-.9833 0-1.9-.1877-2.75-.563-.85-.3753-1.5917-.8793-2.225-1.512-.63333-.6327-1.13733-1.3743-1.512-2.225-.37467-.8507-.56233-1.76733-.563-2.75-.33333.43333-.58333.91267-.75 1.438C7.08333 10.9133 7 11.4507 7 12c0 .7.12933 1.35.388 1.95.25867.6.621 1.125 1.087 1.575.45.4667.975.829 1.575 1.087s1.25.3873 1.95.388Zm3-3c.3 0 .5877-.025.863-.075.2753-.05.5543-.125.837-.225.3667-1 .421-1.9627.163-2.888-.258-.92533-.704-1.70433-1.338-2.337-.634-.63267-1.413-1.07867-2.337-1.338-.924-.25933-1.8867-.205-2.888.163-.1.28333-.175.56267-.225.838-.05.27533-.075.56267-.075.862 0 .7.1293 1.35.388 1.95.2587.6.621 1.125 1.087 1.575.45.4667.975.8293 1.575 1.088.6.2587 1.25.3877 1.95.387Zm4-1.95c.3333-.4333.5833-.9123.75-1.437.1667-.5247.25-1.06233.25-1.613 0-.7-.129-1.35-.387-1.95-.258-.6-.6207-1.125-1.088-1.575-.45-.46667-.975-.829-1.575-1.087S15.7 4.00067 15 4c-.5833 0-1.1293.08333-1.638.25-.5087.16667-.9793.41667-1.412.75.9833 0 1.9.18767 2.75.563.85.37533 1.5917.87933 2.225 1.512.6333.63267 1.1377 1.37433 1.513 2.225.3753.8507.5627 1.7673.562 2.75Z"></path></svg>