<svg xmlns="http://www.w3.org/2000/svg" viewBox="0 0 40 40" width="40px"><path fill="#fab2ff" d="M21.45,18.84H39.57c.29,0,.43,0,.43-.29V18c0-.14,0-.29-.29-.29A24.28,24.28,0,0,1,22.32.29L21.74,0H21.3c-.14,0-.29.14-.29.43V18.55c0,.15,0,.29.29.29Z"></path><path fill="#fab2ff" d="M21.45,40H22l.29-.29A24.28,24.28,0,0,1,39.71,22.32l.29-.44v-.43a.46.46,0,0,0-.43-.44H21.45l-.29.44V39.57C21.16,39.86,21.16,40,21.45,40Z"></path><path fill="#fab2ff" d="M18.12,40h.43c.15,0,.29-.14.29-.43V21.45c0-.15,0-.44-.29-.44H.43a.46.46,0,0,0-.43.44V22c0,.14,0,.29.29.29A24,24,0,0,1,17.68,39.71Z"></path><path fill="#fab2ff" d="M.43,18.84H18.55c.15,0,.29,0,.29-.29V.43c0-.29,0-.43-.29-.43H18c-.14,0-.29,0-.29.29A24.76,24.76,0,0,1,.29,17.68L0,18.12v.43C0,18.7.14,18.84.43,18.84Z"></path></svg>