<svg xmlns="http://www.w3.org/2000/svg" viewBox="0 0 20 29" role="presentation" aria-hidden="true" width="20px"><path fill="#f24e1e" d="M0,4.83A4.83,4.83,0,0,1,4.83,0H10V9.67H4.83A4.84,4.84,0,0,1,0,4.83Z"></path><path fill="#ff7262" d="M10,0h5.17a4.84,4.84,0,0,1,0,9.67H10Z"></path><rect fill="#1abcfe" x="10" y="9.67" width="10" height="9.67" rx="4.83"></rect><path fill="#a259ff" d="M0,14.5A4.83,4.83,0,0,1,4.83,9.67H10v9.66H4.83A4.83,4.83,0,0,1,0,14.5Z"></path><path fill="#0acf83" d="M0,24.17a4.84,4.84,0,0,1,4.83-4.84H10V24a5,5,0,0,1-5,5H4.83A4.83,4.83,0,0,1,0,24.17Z"></path></svg>